# xmcd
#
# Track frame offsets:
#	150
#	22149
#	35953
#	57857
#	85434
#	103006
#	120640
#	134131
#	156691
#	182618
#	197453
#	212473
#
# Disc length: 3035 seconds
# Revision: 0
# Processed by: cddbd v1.5.2PL0 Copyright (c) Steve Scherf et al.
# Submitted via: dBpowerAMP V12.0
#
DISCID=b40bd90c
DTITLE=Steppenwolf - Steppenwolf 7
DYEAR=1970
DGENRE=Bluesrock
TTITLE0=Ball Crusher
TTITLE1=Forty Days and Forty Nights
TTITLE2=Fat Jack
TTITLE3=Renegade
TTITLE4=Foggy Mental Breakdown
TTITLE5=Snow Blind Friend
TTITLE6=Who Needs Ya
TTITLE7=Earschplittenloudenboomer
TTITLE8=Hippo Stomp
TTITLE9=Screaming Night Hog
TTITLE10=Snow Blind Friend [Mono Single Version]
TTITLE11=Hippo Stomp [Mono Single Version]
EXTD=
EXTT0=
EXTT1=
EXTT2=
EXTT3=
EXTT4=
EXTT5=
EXTT6=
EXTT7=
EXTT8=
EXTT9=
EXTT10=
EXTT11=
PLAYORDER=
